<svg xmlns="http://www.w3.org/2000/svg" width="17" height="16" viewBox="0 0 17 16" fill="none">
<path d="M11.3615 5.93292V4.4297C11.5602 4.33686 11.7284 4.18951 11.8465 4.00479C11.9647 3.82008 12.028 3.6056 12.029 3.38633V3.35184C12.029 2.71252 11.5107 2.19425 10.8714 2.19425H10.8369C10.1976 2.19425 9.6793 2.71252 9.6793 3.35184V3.38633C9.68031 3.6056 9.74357 3.82008 9.86173 4.00479C9.97989 4.18951 10.1481 4.33686 10.3467 4.4297V5.93292C9.77581 6.02035 9.23811 6.25709 8.7881 6.61916L4.66547 3.40803C4.69487 3.30191 4.7102 3.19279 4.71193 3.08325C4.71244 2.82527 4.63642 2.57293 4.49349 2.35815C4.35056 2.14338 4.14715 1.97581 3.90898 1.87666C3.67081 1.77751 3.40858 1.75122 3.15547 1.80112C2.90235 1.85102 2.66973 1.97486 2.48701 2.15699C2.30429 2.33912 2.17969 2.57135 2.12897 2.8243C2.07825 3.07725 2.10369 3.33956 2.20207 3.57805C2.30045 3.81655 2.46735 4.0205 2.68166 4.16413C2.89597 4.30775 3.14806 4.38459 3.40604 4.38492C3.63173 4.38386 3.8532 4.3236 4.04832 4.21018L8.10792 7.36919C7.36157 8.49667 7.38154 9.96611 8.15821 11.073L6.92349 12.308C6.82363 12.2761 6.7197 12.2592 6.61491 12.2578C6.02358 12.2583 5.54454 12.7378 5.54469 13.3292C5.54485 13.9204 6.02419 14.3997 6.61547 14.3999C7.2068 14.4 7.68635 13.921 7.68686 13.3297C7.68547 13.2249 7.6685 13.1209 7.63652 13.0211L8.858 11.7992C9.94941 12.6394 11.4484 12.7118 12.6157 11.9807C13.783 11.2495 14.3721 9.86916 14.0924 8.52051C13.8127 7.17182 12.7233 6.1396 11.3615 5.93287V5.93292ZM10.8552 10.8769C10.6296 10.8829 10.405 10.8437 10.1947 10.7616C9.98446 10.6794 9.79279 10.556 9.63103 10.3985C9.46928 10.241 9.34071 10.0527 9.25292 9.84477C9.16513 9.6368 9.1199 9.41334 9.1199 9.1876C9.1199 8.96186 9.16513 8.7384 9.25292 8.53043C9.34071 8.32245 9.46928 8.13418 9.63103 7.97671C9.79279 7.81925 9.98446 7.69579 10.1947 7.61363C10.405 7.53147 10.6296 7.49226 10.8552 7.49833C11.7646 7.53017 12.4855 8.27638 12.486 9.18638C12.4864 10.0963 11.7663 10.8432 10.8569 10.876" fill="#FF7A59"/>
</svg>