<svg xmlns="http://www.w3.org/2000/svg" width="17" height="16" viewBox="0 0 17 16" fill="none">
        <path d="M2.19922 1.59995H8.28832C8.28795 3.62966 8.28832 5.65937 8.28795 7.68909C6.25862 7.68909 4.22892 7.68909 2.19922 7.68909V1.59995Z" fill="#F25022"/>
        <path d="M8.91025 1.59995H14.9993C14.9993 3.62966 14.9997 5.65937 14.999 7.68909C12.9696 7.68872 10.9399 7.68909 8.91061 7.68909C8.90988 5.65937 8.91025 3.62966 8.91025 1.59995Z" fill="#80BA01"/>
        <path d="M2.19922 8.31046C4.22892 8.31119 6.25862 8.31009 8.28832 8.31119C8.28868 10.3409 8.28832 12.3702 8.28832 14.4H2.19922V8.31046Z" fill="#02A4EF"/>
        <path d="M8.91052 8.31119C10.9399 8.31045 12.9696 8.31082 14.9993 8.31082C14.9993 10.3405 14.9993 12.3702 14.9993 14.4H8.91016C8.91052 12.3702 8.90979 10.3405 8.91052 8.31119Z" fill="#FFB902"/>
      </svg>