<svg xmlns="http://www.w3.org/2000/svg" width="17" height="16" viewBox="0 0 17 16" fill="none">
    <path d="M14.8996 3.63143C14.4287 3.84029 13.9225 3.98145 13.3913 4.04494C13.9335 3.71992 14.3499 3.20527 14.546 2.59208C14.0386 2.89299 13.4766 3.11154 12.8784 3.22934C12.3994 2.71896 11.7169 2.40002 10.9616 2.40002C9.51124 2.40002 8.33541 3.5758 8.33541 5.02604C8.33541 5.23186 8.35868 5.43229 8.40344 5.62449C6.2209 5.51498 4.2859 4.4695 2.99068 2.88072C2.76463 3.26857 2.63513 3.71968 2.63513 4.20094C2.63513 5.112 3.09879 5.9158 3.80342 6.38671C3.37291 6.37309 2.96802 6.25496 2.61392 6.05827C2.61373 6.06923 2.61373 6.08023 2.61373 6.09128C2.61373 7.36365 3.51894 8.42505 4.72029 8.66626C4.49991 8.72629 4.26792 8.75836 4.02839 8.75836C3.85918 8.75836 3.69466 8.74192 3.53435 8.71126C3.8685 9.75458 4.83832 10.5138 5.98746 10.535C5.08871 11.2393 3.95638 11.6592 2.72606 11.6592C2.5141 11.6592 2.30505 11.6468 2.09961 11.6225C3.26176 12.3676 4.64215 12.8023 6.12515 12.8023C10.9554 12.8023 13.5968 8.80078 13.5968 5.33056C13.5968 5.21669 13.5943 5.10343 13.5892 4.99083C14.1023 4.62058 14.5475 4.15805 14.8996 3.63143Z" fill="#55ACEE"/>
</svg>