<svg width="17" height="16" viewBox="0 0 17 16" fill="none" xmlns="http://www.w3.org/2000/svg">
<g clip-path="url(#clip0_2430_5262)">
<path d="M14.6614 4.80524H2.8462C2.56547 4.80524 2.33789 5.03281 2.33789 5.31354V13.8917C2.33789 14.1724 2.56547 14.4 2.8462 14.4H14.6614C14.9422 14.4 15.1698 14.1724 15.1698 13.8917V5.31354C15.1698 5.03281 14.9422 4.80524 14.6614 4.80524Z" fill="#4989F5"/>
<path d="M14.5139 4.73309H2.98096C2.62371 4.73309 2.3457 7.49793 2.3457 7.85518L8.66148 14.3999H14.5139C14.8722 14.399 15.1625 14.1087 15.1635 13.7504V5.38254C15.1624 5.02424 14.8722 4.73407 14.5139 4.73309Z" fill="url(#paint0_linear_2430_5262)"/>
<path d="M5.26758 6.41197H8.93376V1.6001H5.81654L5.26758 6.41197Z" fill="#3C4BA6"/>
<path d="M12.6018 6.41197H8.93555V1.6001H12.0528L12.6018 6.41197ZM15.1712 2.51225L15.1758 2.52865C15.1747 2.52286 15.1725 2.51748 15.1712 2.51225Z" fill="#7BABF7"/>
<path d="M15.1757 2.52853L15.1712 2.51212C15.0549 1.97987 14.5838 1.60032 14.039 1.59998H12.0527L12.6013 6.41198H16.2676L15.1757 2.52853Z" fill="#3F51B5"/>
<path d="M2.69791 2.51227L2.69336 2.52867C2.69446 2.52288 2.69667 2.51751 2.69791 2.51227Z" fill="#7BABF7"/>
<path d="M2.69414 2.52853L2.69868 2.51212C2.81492 1.97987 3.28602 1.60032 3.83082 1.59998H5.81721L5.26782 6.41198H1.60156L2.69414 2.52853Z" fill="#7BABF7"/>
<path fill-rule="evenodd" clip-rule="evenodd" d="M5.27356 6.41077C5.27356 7.42261 4.45329 8.24288 3.44147 8.24288C2.42964 8.24288 1.60938 7.42261 1.60938 6.41077H5.27356Z" fill="#709BE0"/>
<path fill-rule="evenodd" clip-rule="evenodd" d="M8.9395 6.41077C8.9395 7.42261 8.11926 8.24288 7.10745 8.24288C6.09564 8.24288 5.27539 7.42261 5.27539 6.41077H8.9395Z" fill="#3C4BA6"/>
<path fill-rule="evenodd" clip-rule="evenodd" d="M12.6036 6.41077C12.6036 7.42261 11.7833 8.24288 10.7715 8.24288C9.75971 8.24288 8.93945 7.42261 8.93945 6.41077H12.6036Z" fill="#709BE0"/>
<path fill-rule="evenodd" clip-rule="evenodd" d="M16.2658 6.41077C16.2658 7.42261 15.4455 8.24288 14.4337 8.24288C13.4218 8.24288 12.6016 7.42261 12.6016 6.41077H16.2658Z" fill="#3C4BA6"/>
<path d="M14.4336 11.3744C14.4271 11.2872 14.4164 11.2075 14.4011 11.1058H12.4026C12.4026 11.3853 12.4026 11.6903 12.4015 11.97H13.5592C13.5346 12.1003 13.4845 12.2245 13.4118 12.3354C13.339 12.4463 13.2451 12.5418 13.1354 12.6163C13.1354 12.6163 13.1354 12.6115 13.1346 12.6113C12.9929 12.7044 12.8332 12.7667 12.666 12.7942C12.4983 12.8249 12.3263 12.8242 12.1589 12.792C11.9889 12.7568 11.8279 12.6871 11.686 12.5871C11.4765 12.4385 11.315 12.2321 11.2211 11.993C11.214 11.9744 11.2073 11.9557 11.2006 11.9366V11.9346L11.2024 11.9332C11.1113 11.6659 11.111 11.3759 11.2017 11.1084C11.2655 10.9208 11.3706 10.7498 11.5092 10.6081C11.8343 10.2718 12.32 10.1453 12.7678 10.2803C12.9395 10.333 13.0964 10.4254 13.2258 10.5499L13.6164 10.1593C13.6853 10.0897 13.7569 10.0223 13.8231 9.95037C13.6251 9.76562 13.3926 9.62166 13.139 9.52667C12.6774 9.35929 12.1724 9.35487 11.7079 9.51413C11.6918 9.51965 11.6757 9.52539 11.6597 9.53136C11.1586 9.71974 10.7464 10.0892 10.5044 10.5667C10.419 10.7358 10.3568 10.9156 10.3195 11.1013C10.0982 12.2008 10.7691 13.283 11.8522 13.5739C12.2063 13.6688 12.5827 13.6664 12.9395 13.5854C13.2637 13.5122 13.5635 13.3564 13.8098 13.1331C14.0667 12.8968 14.2508 12.5818 14.3473 12.2473C14.428 11.9638 14.4572 11.6682 14.4336 11.3744Z" fill="white"/>
</g>
<defs>
<linearGradient id="paint0_linear_2430_5262" x1="2.3457" y1="9.56642" x2="15.1633" y2="9.56642" gradientUnits="userSpaceOnUse">
<stop offset="0.03" stop-color="#4079D8"/>
<stop offset="1" stop-color="#4989F5"/>
</linearGradient>
<clipPath id="clip0_2430_5262">
<rect width="16" height="16" fill="white" transform="translate(0.800781)"/>
</clipPath>
</defs>
</svg>
